<svg height="800" width="800" xmlns="http://www.w3.org/2000/svg" viewBox="0 0 300.833 300.833" xml:space="preserve"><path style="fill:#d8d8d8" d="M257.445 227.621a35.326 35.326 0 0 0-26.91-27.008l-49.316-10.885c-1.153 15.917-30.822 40.606-30.822 40.606s-29.338-24.732-30.45-40.688l-49.688 10.967a35.326 35.326 0 0 0-26.91 27.008l-9.126 42.076c13.14 8.612 28.709 15.764 46.016 21.034 21.242 6.469 45.104 10.102 70.326 10.102 25.092 0 48.839-3.595 69.999-10.001 17.31-5.241 32.886-12.364 46.047-20.945l-9.166-42.266z"/><path style="fill:#2b2b2b" d="M129.762 187.479h41.269s.938 20.772-19.681 20.772-21.619-16.564-21.588-20.772z"/><path style="fill:#ddc29b" d="m133.586 218 16.812 15.333 17.188-16v-52.5h-34z"/><path style="fill:#e8d8bf" d="M235.748 109.553c0-7.098-4.379-13.164-10.578-15.671.222-2.471.341-4.918.341-7.327 0-41.38-33.545-56.194-74.925-56.194S75.661 45.175 75.661 86.555a81.6 81.6 0 0 0 .341 7.327c-6.199 2.507-10.578 8.573-10.578 15.671 0 9.179 12.356 21.685 21.646 22.107 13.249 26.661 36.74 48.551 63.516 48.551s50.267-21.89 63.516-48.551c9.29-.422 21.646-12.927 21.646-22.107z"/><path style="fill:#bdc3c7" d="M70.922 200.466c14.126 28.117 12.31 59.393 9.318 90.265a222.552 222.552 0 0 0 18.314 4.714c-.098-33.394-1.199-67.222-13.361-98.128l-14.271 3.149zM118.642 189.933l-15.716 3.469c7.55 34.207 12.901 69.815 12.84 105.046a252.43 252.43 0 0 0 13.412 1.485c1.235-37.024-3.603-73.525-10.536-110zM229.872 200.466c-14.126 28.117-12.31 59.393-9.318 90.265a222.552 222.552 0 0 1-18.314 4.714c.098-33.394 1.199-67.222 13.361-98.128l14.271 3.149zM182.152 189.933l15.716 3.469c-7.55 34.207-12.901 69.815-12.84 105.046a252.43 252.43 0 0 1-13.412 1.485c-1.235-37.024 3.604-73.525 10.536-110zM159.23 222.281c-4.978 4.841-8.833 8.053-8.833 8.053s-3.863-3.26-8.833-8.166v78.493c2.981.106 5.978.172 9.002.172 2.907 0 5.795-.053 8.664-.149v-78.403z"/><path style="fill:#595155" d="m181.219 189.728-10.188-2.249c0 11.481-20.481 40.854-20.481 40.854s-20.788-29.373-20.789-40.854l-9.816 2.167c.844 12.099 17.913 38.438 26.118 50.468v38.22h9v-38.626c8.404-12.198 25.292-38.049 26.156-49.98z"/><path style="fill:#ddcdb6" d="M225.148 93.882c.222-2.471.341-4.918.341-7.327 0-41.38-33.545-56.194-74.925-56.194S75.639 45.175 75.639 86.555a81.6 81.6 0 0 0 .341 7.327c-6.199 2.507-10.578 8.573-10.578 15.671 0 9.179 12.356 21.685 21.646 22.107 13.249 26.661 36.74 48.551 63.516 48.551s50.267-21.89 63.516-48.551c9.29-.422 21.646-12.928 21.646-22.107 0-7.098-4.378-13.164-10.578-15.671zm-74.584 83.859c-31.403 0-56.86-51.012-56.86-83.904s25.457-45.281 56.86-45.281 56.86 12.389 56.86 45.281-25.457 83.904-56.86 83.904z"/><path style="fill:#2b2b2b" d="M222.896 101.225s-2.98 17.88-15.868 29.734c0 0 9.056-22.071 3.096-33.991M78.276 101.225s2.98 17.88 15.868 29.734c0 0-9.056-22.071-3.096-33.991"/><path style="fill:#a8afb2" d="M232.898 80.333H68.231l4.737-45.905c2.079-13.857 13.215-24.584 27.139-26.144l50.124-5.617 50.763 5.638c13.937 1.548 25.089 12.28 27.17 26.148l4.734 45.88z"/><path style="fill:#bdc3c7" d="m216.907 80.061-132.366.544 3.619-45.921c1.614-13.863 10.521-24.628 21.708-26.234l40.269-5.783 40.829 5.47c11.21 1.502 20.218 12.197 21.948 26.058l3.993 45.866z"/><path style="fill:#6e7172" d="M150.564 92.07c25.624 0 51.074 15.297 63.252 23.808 3.949 2.76 8.874.331 10.394-5.107l8.521-30.488c-33.833-30.003-82.167-29.574-82.167-29.574s-48.501-.429-82.333 29.574l8.526 30.506c1.518 5.432 6.436 7.864 10.384 5.114 12.211-8.506 37.773-23.833 63.423-23.833z"/><ellipse style="fill:#6e7172" cx="150.564" cy="3.333" rx="8.167" ry="3.333"/></svg>